<?xml version="1.0" encoding="utf-8"?>
<!-- Generator: Adobe Illustrator 16.0.0, SVG Export Plug-In . SVG Version: 6.00 Build 0)  -->
<!DOCTYPE svg PUBLIC "-//W3C//DTD SVG 1.1//EN" "http://www.w3.org/Graphics/SVG/1.1/DTD/svg11.dtd">
<svg version="1.1" id="Layer_1" xmlns="http://www.w3.org/2000/svg" xmlns:xlink="http://www.w3.org/1999/xlink" x="0px" y="0px"
	 width="353px" height="56.166px" viewBox="0 0 353 56.166" enable-background="new 0 0 353 56.166" xml:space="preserve">
<g>
	<g>
		<path fill="#FFFFFF" d="M0,56.166c0-18.666,0-37.333,0-56c117.667,0,235.333,0,353,0c0,18.667,0,37.333,0,56
			C235.334,56.166,117.667,56.166,0,56.166z"/>
		<path fill-rule="evenodd" clip-rule="evenodd" fill="#36C6F4" d="M13.48,9.259c5.351,6.692,9.845,13.217,11.781,21.159
			c1.343,5.508-0.576,10.686-4.902,13.56c-4.451,2.956-9.674,2.88-14.026-0.206c-4.062-2.88-5.885-7.979-4.628-13.232
			C3.61,22.582,8.13,16.062,13.48,9.259z"/>
		<path fill-rule="evenodd" clip-rule="evenodd" fill="#F5F4F4" d="M40.266,10.04c3.797-1.308,6.575-1.471,8.664,2.085
			c-1.724,2.972,1.498,6.739-0.838,9.959c-3.441-0.696-0.893-4.375-3.488-5.232c-2.878,0.516-0.473,4.104-3.479,5.365
			C38.97,18.252,40.256,14.219,40.266,10.04z"/>
		<path fill-rule="evenodd" clip-rule="evenodd" fill="#F5F3F3" d="M97.877,22.479c-1.221-4.241-1.886-8.14,0.291-11.748
			c1.616-2.679,6.463-2.085,7.309,0.899c0.947,3.34,1.211,6.955-0.381,10.399c-3.518-0.744-1.033-4.018-2.918-5.357
			C98.673,16.797,101.063,20.718,97.877,22.479z"/>
		<path fill-rule="evenodd" clip-rule="evenodd" fill="#F4F3F3" d="M58.678,21.688c-3.306,0.846-6.498,0.981-7.309-2.493
			c-0.703-3.011-1.712-6.74,1.553-9.236c1.737-1.328,4.099-1.428,5.45,0.29C61.261,13.922,60.353,17.882,58.678,21.688z"/>
		<path fill-rule="evenodd" clip-rule="evenodd" fill="#F4F3F3" d="M156.721,21.785c-3.612,0.685-6.804,0.734-7.443-2.857
			c-0.543-3.052-1.621-6.833,1.878-9.137c1.772-1.167,4.1-1.182,5.44,0.646C159.247,14.052,158.237,17.87,156.721,21.785z"/>
		<path fill-rule="evenodd" clip-rule="evenodd" fill="#F5F4F4" d="M142.001,11.167c-0.001,0.333-0.002,0.665-0.001,0.998
			c-0.956,1.537-0.188,3.098-0.119,4.812c-0.162,0.468,0.848-0.271,0.181-0.268c0.54-4.062,3.112-1.605,4.939-1.541
			c-0.144,1.943,0.386,3.954-0.667,6.025c-2.538,1.408-5.653,2.027-7.259-0.8c-1.826-3.215-2.436-7.103,0.924-10.228
			C141.139,9.553,142.097,9.306,142.001,11.167z"/>
		<path fill-rule="evenodd" clip-rule="evenodd" fill="#F4F3F3" d="M95,15.168c-0.144,1.943,0.386,3.954-0.667,6.024
			c-2.538,1.408-5.653,2.026-7.258-0.8c-1.826-3.216-2.436-7.103,0.924-10.228c1.143-0.616,2.094-0.851,2.002,1.001l0.001,0.003
			c-1.278,2.092,0.197,3.982,0.362,6.65C90.878,13.969,92.835,14.326,95,15.168z"/>
		<path fill-rule="evenodd" clip-rule="evenodd" fill="#F5F4F4" d="M115.335,21.934c-2.344,0-4.449,0-7.022,0
			c-0.158-4.32-1.279-8.443,1.148-13.082c2.639,3.525,0.892,6.965,1.725,9.974C111.709,20.861,114.396,19.473,115.335,21.934z"/>
		<path fill-rule="evenodd" clip-rule="evenodd" fill="#F4F3F3" d="M66,11.166c-1.728,1.472-0.107,2.301,0.695,3.151
			c1.369,1.45,2.729,2.862,3.052,5.149c-1.598,2.845-3.789,3.283-6.673,2.017c0.348-2.891,2.469-0.47,3.192-1.991
			c0.071-2.835-3.175-3.792-4.084-6.207c-0.311-1.573,0.52-2.482,1.818-3.12C65.142,9.548,66.092,9.314,66,11.166z"/>
		<path fill-rule="evenodd" clip-rule="evenodd" fill="#F4F3F3" d="M76,11.166c-1.728,1.472-0.107,2.301,0.695,3.151
			c1.369,1.45,2.729,2.862,3.059,5.196c-1.659,2.583-3.696,3.635-6.646,1.68c0.313-2.602,2.435-0.18,3.157-1.702
			c0.071-2.835-3.175-3.792-4.084-6.207c-0.311-1.573,0.52-2.482,1.818-3.12C75.142,9.548,76.092,9.314,76,11.166z"/>
		<path fill-rule="evenodd" clip-rule="evenodd" fill="#F5F4F4" d="M132,11.166c-2.206,2.11-0.072,3.105,1.175,4.347
			c-0.402,1.34-2.74,1.653-2.408,2.371c1.176,3.003,3.843,1.582,4.65,4.281c-2.309,0-4.363,0-6.417,0
			c-1.028-3.878-0.312-7.78-0.398-11.792C130.107,9.74,131.418,8.751,132,11.166z"/>
		<path fill-rule="evenodd" clip-rule="evenodd" fill="#F4F2F3" d="M119.388,21.578c0-4.116,0-7.921,0-12.709
			c3.66,4.354-1.52,10.653,5.184,12.885C122.513,22.326,121.08,22.295,119.388,21.578z"/>
		<path fill-rule="evenodd" clip-rule="evenodd" fill="#F8F7F7" d="M134,34.168c5.025-0.083,2.711,5.408,5.513,7.056
			c1.556-1.696,0.99-4.595,3.793-6.847c-1.38,3.771-1.493,7.036-3.926,9.594c-3.225-2.245-1.503-7.244-5.38-8.807
			c-0.326-0.221-0.435-0.442-0.326-0.664C133.782,34.279,133.89,34.168,134,34.168z"/>
		<path fill-rule="evenodd" clip-rule="evenodd" fill="#F6F5F6" d="M170.687,40.511c-0.442,1.001-0.82,1.854-1.47,3.323
			c-0.227-3.475-0.551-6.245,0.236-9.049c1.826-0.976,3.568-0.637,5.105-0.277c1.674,1.564,1.725,3.057,0.846,4.468
			C174.03,40.643,172.063,39.812,170.687,40.511z"/>
		<path fill-rule="evenodd" clip-rule="evenodd" fill="#FEFEFE" d="M95,15.168c-0.972,0-1.945,0-2.902,0
			c-0.896,1.839,0.983,4.268-1.984,5.597c-1.625-3.275-1.821-6.383-0.113-9.596c0.102,0.799,0.204,1.599,0.277,2.176
			C91.762,14.764,93.926,13.461,95,15.168z"/>
		<path fill-rule="evenodd" clip-rule="evenodd" fill="#F7F6F6" d="M132,11.166c-0.738-0.953-1.583-1.107-2.999,0.011
			c0,3.422,0,7.205,0,10.988c-2.073-4.056-0.706-8.216-0.733-12.322c2.545-0.979,4.757-0.849,7.222-0.231
			C134.987,11.925,133.157,10.821,132,11.166z"/>
		<path fill-rule="evenodd" clip-rule="evenodd" fill="#F6F5F5" d="M262,40.168c-2.454-0.582-2.841,1.451-3.755,3.773
			c-0.291-3.59-0.519-6.312,0.132-8.985c1.599-1.166,3.226-0.782,4.704-0.579c1.858,0.764,1.924,2.26,1.919,3.789
			c-0.352,0.352-0.754,0.426-1.208,0.229c-0.849-0.367-1.348-1.485-2.535-1.18c0.145,1.184,1.545,1.098,1.973,1.978
			C263.237,40.045,262.938,40.512,262,40.168z"/>
		<path fill-rule="evenodd" clip-rule="evenodd" fill="#F6F5F5" d="M54,40.168c-2.454-0.582-2.841,1.451-3.755,3.773
			c-0.292-3.59-0.519-6.312,0.147-9.05c1.58-1.126,3.224-0.588,4.473-0.604c2.075,0.854,2.139,2.35,2.135,3.879
			c-0.351,0.354-0.753,0.429-1.208,0.229c-0.849-0.367-1.348-1.484-2.536-1.181c0.145,1.185,1.544,1.099,1.973,1.979
			C55.236,40.045,54.938,40.512,54,40.168z"/>
		<path fill-rule="evenodd" clip-rule="evenodd" fill="#F6F5F5" d="M189.999,40.168c-2.453-0.582-2.84,1.451-3.745,3.75
			c0-3.562,0-6.277,0-8.928c1.719-1.226,3.362-0.687,4.611-0.703c2.075,0.854,2.139,2.35,2.135,3.879
			c-0.351,0.352-0.753,0.426-1.208,0.229c-0.848-0.367-1.348-1.484-2.535-1.181c0.145,1.185,1.545,1.099,1.973,1.979
			C191.237,40.045,190.938,40.512,189.999,40.168z"/>
		<path fill-rule="evenodd" clip-rule="evenodd" fill="#F9F8F8" d="M231.001,42.166c1.335,0.627,2.649,1.398,4.015,0.711
			c1.289-1.344-1.271-2.048,0.047-3.41c0.675-0.45,1.564-0.197,2.426,0.248c1.298,3.245-0.847,4.221-3.169,5.19
			c-1.793-0.273-3.417-0.915-4.318-2.74C230.335,41.683,230.668,41.683,231.001,42.166z"/>
		<path fill-rule="evenodd" clip-rule="evenodd" fill="#F6F5F6" d="M251,40.166c-0.435,4.083,3.246,2.511,5.662,3.546
			c-2.451,0.686-4.195,0.483-6.088,0.118c-0.973-3-0.574-5.891-0.332-8.875c1.921-1.235,3.845-0.617,6.469-0.819
			c-2.295,1.752-6.227-0.165-5.71,4.029C251.594,38.832,251.594,39.5,251,40.166z"/>
		<path fill-rule="evenodd" clip-rule="evenodd" fill="#F6F5F6" d="M211,40.166c-0.516,4.193,3.414,2.279,5.19,3.633
			c-1.979,0.564-3.728,0.537-5.677-0.157c-0.912-2.812-0.514-5.702-0.271-8.687c1.921-1.236,3.845-0.617,6.469-0.819
			c-2.295,1.752-6.227-0.165-5.71,4.029C211.594,38.832,211.594,39.5,211,40.166z"/>
		<path fill-rule="evenodd" clip-rule="evenodd" fill="#F6F5F6" d="M179,40.166c-0.516,4.193,3.414,2.279,5.19,3.633
			c-1.979,0.564-3.728,0.537-5.677-0.157c-0.912-2.812-0.514-5.702-0.271-8.687c1.921-1.236,3.845-0.617,6.469-0.819
			c-2.295,1.752-6.227-0.165-5.71,4.029C179.594,38.832,179.594,39.5,179,40.166z"/>
		<path fill-rule="evenodd" clip-rule="evenodd" fill="#F6F5F6" d="M90.001,40.166c-0.435,4.083,3.246,2.51,5.669,3.55
			c-2.458,0.679-4.203,0.481-6.095,0.114c-0.972-3-0.575-5.891-0.341-8.768c1.931-1.334,3.832-0.965,6.009-0.57
			c-1.827,1.396-5.758-0.521-5.242,3.673C90.594,38.832,90.594,39.5,90.001,40.166z"/>
		<path fill-rule="evenodd" clip-rule="evenodd" fill="#F6F5F6" d="M146.001,40.166c-0.516,4.193,3.414,2.279,5.19,3.633
			c-1.979,0.564-3.727,0.537-5.677-0.157c-0.911-2.812-0.514-5.702-0.271-8.687c1.921-1.236,3.845-0.617,6.468-0.819
			c-2.295,1.752-6.226-0.165-5.709,4.029C146.594,38.832,146.594,39.5,146.001,40.166z"/>
		<path fill-rule="evenodd" clip-rule="evenodd" fill="#F6F5F6" d="M134,34.168c0,0.332,0,0.664,0,0.996c-1.264,0-2.527,0-3.326,0
			c-1.824,0.713-1.582,1.928-1.673,3.001c0.593,0.667,0.593,1.335,0,2.001c-0.507,4.203,3.419,2.279,5.192,3.621
			c-1.96,0.596-3.706,0.525-5.647-0.115c-0.979-2.804-0.524-5.696-0.324-8.523C130.054,33.554,132.115,34.402,134,34.168z"/>
		<path fill-rule="evenodd" clip-rule="evenodd" fill="#FEFEFE" d="M147,15.167c-1.283,0-2.566,0-3.841,0
			c0.015,1.815,2.162,3.735-0.989,5.008c-1.774-2.735-1.702-5.337-0.17-8.011C142.252,15.52,145.965,13.115,147,15.167z"/>
		<path fill-rule="evenodd" clip-rule="evenodd" fill="#FAF9F9" d="M226.993,34.869c1.203,2.896,1.408,5.777-0.008,9.948
			C225.602,40.652,225.819,37.768,226.993,34.869z"/>
		<path fill-rule="evenodd" clip-rule="evenodd" fill="#F8F7F7" d="M221,39.166c1.938-0.01,3.73,0.184,3.9,3.037
			c-2.235,3.212-4.604,3.071-7.91-0.375c2.424,0.014,3.969,2.581,5.645,0.561C223.475,40.611,221.532,40.246,221,39.166L221,39.166z
			"/>
		<path fill-rule="evenodd" clip-rule="evenodd" fill="#F6F5F5" d="M124,44.164c-1.441-0.072-2.883-0.146-4.39-0.224
			c-1.133-3.114-0.375-6.003-0.548-8.591c1.647-1.689,3.378-0.996,4.938-1.183c0.255,0.25,0.356,0.515,0.305,0.792
			c-0.053,0.285-0.117,0.428-0.188,0.43c-3.957,3.402-3.957,4.147,0.009,7.555C124.402,43.384,124.359,43.791,124,44.164z"/>
		<path fill-rule="evenodd" clip-rule="evenodd" fill="#F6F5F5" d="M112,44.164c-1.441-0.072-2.883-0.146-4.317-0.22
			c-1.254-3.116-0.456-6.007-0.586-8.629c1.613-1.655,3.344-0.962,4.904-1.148c0.255,0.25,0.356,0.515,0.305,0.792
			c-0.053,0.285-0.117,0.428-0.188,0.43c-3.957,3.402-3.957,4.147,0.009,7.555C112.402,43.384,112.359,43.791,112,44.164z"/>
		<path fill-rule="evenodd" clip-rule="evenodd" fill="#FAF9F9" d="M82.001,35.168c-0.197,2.788,0.439,5.678-1,8.385
			c-1.441-2.708-0.804-5.598-1.001-8.386C80.667,34.601,81.334,34.6,82.001,35.168z"/>
		<path fill-rule="evenodd" clip-rule="evenodd" fill="#F6F5F5" d="M206,44.164c-1.441-0.072-2.881-0.146-4.423-0.225
			c-0.958-3.118-0.569-5.994-0.373-8.735c1.505-1.544,3.235-0.851,4.796-1.037c0.254,0.25,0.355,0.515,0.305,0.792
			c-0.054,0.285-0.117,0.428-0.188,0.43c-3.957,3.402-3.957,4.147,0.008,7.555C206.393,43.383,206.365,43.792,206,44.164z"/>
		<path fill-rule="evenodd" clip-rule="evenodd" fill="#F6F5F6" d="M43.001,40.166c-0.042,0.949-0.083,1.898-0.125,2.846
			c-0.192-0.003-0.384-0.007-0.576-0.01c0-2.621,0-5.243,0-7.983c1.741-1.436,3.723-0.571,6.563-1.062
			c-2.466,1.933-6.41,0.051-5.861,4.208C43.594,38.832,43.594,39.5,43.001,40.166z"/>
		<path fill-rule="evenodd" clip-rule="evenodd" fill="#F9F8F8" d="M206,44.164c0-0.332,0-0.666,0-0.998
			c-0.628-2.667-0.628-5.333,0-8c0-0.332,0-0.666,0-0.999C210.036,38.322,210.036,40.01,206,44.164z"/>
		<path fill-rule="evenodd" clip-rule="evenodd" fill="#F9F8F8" d="M124,35.166c0-0.332,0-0.666,0-0.999
			c4.036,4.155,4.036,5.843,0,9.998c0-0.333,0-0.667,0-0.999C123.373,40.499,123.373,37.833,124,35.166z"/>
		<path fill-rule="evenodd" clip-rule="evenodd" fill="#F9F8F8" d="M112,35.166c0-0.332,0-0.666,0-0.999
			c4.036,4.155,4.036,5.843,0,9.998c0-0.333,0-0.667,0-0.999C111.373,40.499,111.373,37.833,112,35.166z"/>
		<path fill-rule="evenodd" clip-rule="evenodd" fill="#F6F5F6" d="M154.011,35.59c0,2.129,0,4.256,0,5.837
			c0.891,2.36,2.977,1.146,4.031,2.303c-1.453,0.811-2.865,0.332-4.433,0.104C152.621,40.908,152.967,38.051,154.011,35.59z"/>
		<path fill-rule="evenodd" clip-rule="evenodd" fill="#F7F6F6" d="M166.001,43.166c-1.556,1.709-3.269,0.873-5.046,0.524
			c-1.177-2.646-1.682-5.08,0.045-7.524c0.162,0.153,0.326,0.307,0.491,0.458c0.8,2.388,0.858,5.274,4.077,6.029
			C165.715,42.822,165.859,42.994,166.001,43.166z"/>
		<path fill-rule="evenodd" clip-rule="evenodd" fill="#F7F6F6" d="M65.001,43.166c-1.555,1.717-3.27,0.863-5.041,0.535
			c-1.182-2.656-1.687-5.091,0.04-7.535c0.163,0.153,0.326,0.307,0.492,0.458c0.8,2.388,0.857,5.274,4.077,6.029
			C64.715,42.822,64.858,42.994,65.001,43.166z"/>
		<path fill-rule="evenodd" clip-rule="evenodd" fill="#F6F5F6" d="M90,11.166c-0.43-0.809-1.178-0.981-2.002-1.001
			c2.478-1.551,4.739-1.684,6.862,0.901C93.044,12.514,91.523,10.614,90,11.166z"/>
		<path fill-rule="evenodd" clip-rule="evenodd" fill="#F6F5F6" d="M142.001,11.167c-0.43-0.809-1.178-0.981-2.002-1.002
			c2.478-1.551,4.739-1.684,6.862,0.901C145.044,12.515,143.523,10.613,142.001,11.167z"/>
		<path fill-rule="evenodd" clip-rule="evenodd" fill="#F6F5F5" d="M99,37.166c-1.876,1.604-0.434,4.039-1.656,6.75
			c-0.451-3.623-0.543-6.346-0.057-9.008c1.547-0.453,1.499,0.543,1.713,1.256c0.137,0.168,0.273,0.334,0.411,0.502
			C99.276,36.832,99.138,36.999,99,37.166z"/>
		<path fill-rule="evenodd" clip-rule="evenodd" fill="#F6F5F5" d="M70,37.166c-1.988,1.576-0.239,4.088-1.707,6.342
			c-0.4-3.215-0.493-5.938-0.006-8.6c1.547-0.453,1.499,0.543,1.713,1.256c0.137,0.168,0.273,0.334,0.411,0.502
			C70.276,36.832,70.138,36.999,70,37.166z"/>
		<path fill-rule="evenodd" clip-rule="evenodd" fill="#F6F5F5" d="M242,37.166c-1.875,1.604-0.436,4.039-1.655,6.758
			c-0.452-3.631-0.544-6.354-0.058-9.016c1.547-0.453,1.499,0.543,1.713,1.256c0.137,0.168,0.273,0.334,0.412,0.502
			C242.276,36.832,242.138,36.999,242,37.166z"/>
		<path fill-rule="evenodd" clip-rule="evenodd" fill="#F9F8F8" d="M167,36.166c1.627,2.613,1.859,5.027-0.999,7L166,43.165
			c-1.414-1.647-1.379-3.503-0.795-5.443C165.551,36.913,166.133,36.373,167,36.166z"/>
		<path fill-rule="evenodd" clip-rule="evenodd" fill="#F6F5F6" d="M74.001,42.166c2.106-1.945,0.174-4.742,1.663-7.369
			c0.481,3.236,0.515,5.961,0.053,8.627C74.165,43.876,74.214,42.879,74.001,42.166L74.001,42.166z"/>
		<path fill-rule="evenodd" clip-rule="evenodd" fill="#F9F8F8" d="M66.001,36.166c1.626,2.613,1.859,5.027-1,7L65,43.165
			c-1.414-1.646-1.378-3.503-0.794-5.443C64.552,36.913,65.133,36.373,66.001,36.166z"/>
		<path fill-rule="evenodd" clip-rule="evenodd" fill="#F6F5F6" d="M246,42.166c2.106-1.945,0.174-4.742,1.664-7.369
			c0.48,3.236,0.514,5.961,0.053,8.627C246.165,43.876,246.214,42.879,246,42.166L246,42.166z"/>
		<path fill-rule="evenodd" clip-rule="evenodd" fill="#F6F5F6" d="M103.001,42.166c2.106-1.945,0.174-4.742,1.663-7.369
			c0.481,3.236,0.515,5.961,0.053,8.627C103.165,43.876,103.214,42.879,103.001,42.166L103.001,42.166z"/>
		<path fill-rule="evenodd" clip-rule="evenodd" fill="#FAF9F9" d="M43.001,40.166c0-0.666,0-1.334,0-2.001
			c1.507,0.15,3.177-0.411,4.675,0.815C46.245,40.87,44.475,39.867,43.001,40.166z"/>
		<path fill-rule="evenodd" clip-rule="evenodd" fill="#FAF9F9" d="M211,40.166c0.001-0.666,0.001-1.334,0.001-2.001
			c1.511,0.14,3.172-0.388,4.685,0.804C214.245,40.87,212.475,39.867,211,40.166z"/>
		<path fill-rule="evenodd" clip-rule="evenodd" fill="#FAF9F9" d="M90.001,40.166c0-0.666,0-1.334,0-2.001
			c1.51,0.14,3.172-0.388,4.684,0.804C93.245,40.871,91.475,39.867,90.001,40.166z"/>
		<path fill-rule="evenodd" clip-rule="evenodd" fill="#FAF9F9" d="M129.001,40.166c0-0.666,0-1.334,0-2.001
			c1.51,0.14,3.172-0.388,4.684,0.804C132.245,40.87,130.475,39.867,129.001,40.166z"/>
		<path fill-rule="evenodd" clip-rule="evenodd" fill="#FAF9F9" d="M146.001,40.166c0-0.666,0-1.334,0-2.001
			c1.51,0.14,3.172-0.388,4.684,0.804C149.245,40.87,147.475,39.867,146.001,40.166z"/>
		<path fill-rule="evenodd" clip-rule="evenodd" fill="#FAF9F9" d="M179,40.166c0.001-0.666,0.001-1.334,0.001-2.001
			c1.511,0.14,3.172-0.388,4.685,0.804C182.245,40.87,180.475,39.867,179,40.166z"/>
		<path fill-rule="evenodd" clip-rule="evenodd" fill="#FAF9F9" d="M251,40.166c0.001-0.666,0.001-1.334,0.001-2.001
			c1.511,0.14,3.172-0.388,4.685,0.804C254.245,40.87,252.475,39.867,251,40.166z"/>
		<path fill-rule="evenodd" clip-rule="evenodd" fill="#F8F7F7" d="M189.999,40.168c0.334-0.335,0.668-0.669,1.002-1.003
			c-0.246-0.912,0.087-1.245,1-0.999c0.332,0,0.666,0,0.999,0c-1.417,1.642-0.64,3.521-0.269,5.488
			C190.851,42.939,190.762,41.308,189.999,40.168z"/>
		<path fill-rule="evenodd" clip-rule="evenodd" fill="#F8F7F7" d="M54,40.168c0.333-0.335,0.667-0.669,1.001-1.003
			c-0.246-0.912,0.087-1.245,1-0.999c0.333,0,0.667,0,1,0c-1.417,1.642-0.64,3.521-0.268,5.488
			C54.851,42.939,54.763,41.308,54,40.168z"/>
		<path fill-rule="evenodd" clip-rule="evenodd" fill="#F8F7F7" d="M262,40.168c0.333-0.335,0.667-0.669,1.001-1.003
			c-0.245-0.912,0.087-1.246,1-0.999c0.333,0,0.666,0,0.999,0c-1.166,1.669-1.058,3.477,0.187,5.66
			C262.851,42.939,262.762,41.308,262,40.168z"/>
		<path fill-rule="evenodd" clip-rule="evenodd" fill="#F6F5F5" d="M66,11.166c-0.43-0.808-1.177-0.98-2.001-1
			c2.446-2.086,3.926-0.696,5.932,1.812C68.104,11.6,67.052,11.383,66,11.166z"/>
		<path fill-rule="evenodd" clip-rule="evenodd" fill="#F6F5F5" d="M76,11.166c-0.43-0.808-1.177-0.98-2.001-1
			c2.45-2.099,3.894-0.581,6.219,1.872C78.104,11.6,77.052,11.383,76,11.166z"/>
		<path fill-rule="evenodd" clip-rule="evenodd" fill="#F7F6F6" d="M66.001,36.166c-0.333,0.332-0.666,0.666-1,1
			c-1.656-0.387-3.396-0.358-5-1H60C62,32.621,64,33.768,66.001,36.166z"/>
		<path fill-rule="evenodd" clip-rule="evenodd" fill="#F7F6F6" d="M167,36.166c-0.332,0.332-0.666,0.666-0.999,1
			c-1.655-0.387-3.396-0.359-5.001-1l0,0C163,32.621,165,33.769,167,36.166z"/>
		<path fill-rule="evenodd" clip-rule="evenodd" fill="#F8F7F7" d="M219,35.166c2.155-1.717,4.004-1.457,6.373,1.417
			C222.623,36.17,220.977,34.601,219,35.166L219,35.166z"/>
		<path fill-rule="evenodd" clip-rule="evenodd" fill="#F6F5F5" d="M82.001,35.168c-0.667-0.001-1.334-0.001-2.001-0.001
			c-0.631-0.059-1.263-0.116-1.895-0.175c-0.014-0.164-0.027-0.328-0.041-0.492c1.968,0,3.937,0,5.807,0
			c-0.058,0.084-0.179,0.467-0.391,0.527C83.012,35.16,82.498,35.131,82.001,35.168z"/>
		<path fill-rule="evenodd" clip-rule="evenodd" fill="#F8F7F7" d="M196,41.166c-0.062-1.958,0.409-3.703,2-5l0,0
			C198.062,38.124,197.591,39.869,196,41.166L196,41.166z"/>
		<path fill-rule="evenodd" clip-rule="evenodd" fill="#F6F5F5" d="M231.001,42.166c-0.333,0-0.667,0-1-0.001
			c0.325-2.001-0.819-4.247,0.999-5.999l0,0C231,38.166,231.001,40.166,231.001,42.166z"/>
		<path fill-rule="evenodd" clip-rule="evenodd" fill="#F8F8F8" d="M196,41.166c-0.141,1.215,0.365,2.701-1.467,3.322
			C194.121,42.918,195.042,42.034,196,41.166L196,41.166z"/>
		<path fill-rule="evenodd" clip-rule="evenodd" fill="#F7F6F6" d="M244,39.166c1.33,0.558,1.998,1.557,2,3l0,0
			C244.67,41.607,244.002,40.609,244,39.166L244,39.166z"/>
		<path fill-rule="evenodd" clip-rule="evenodd" fill="#F7F6F6" d="M103,42.166c-1.329-0.559-1.998-1.557-2-3l0,0
			C102.33,39.724,102.998,40.723,103,42.166L103,42.166z"/>
		<path fill-rule="evenodd" clip-rule="evenodd" fill="#F6F5F5" d="M232,35.166c1.334-1.41,2.666-1.41,4,0l0,0
			C234.667,35.166,233.334,35.166,232,35.166L232,35.166z"/>
		<path fill-rule="evenodd" clip-rule="evenodd" fill="#F7F6F6" d="M72,39.166c1.33,0.558,1.998,1.557,2,3H74
			C72.671,41.607,72.002,40.609,72,39.166L72,39.166z"/>
		<path fill-rule="evenodd" clip-rule="evenodd" fill="#F6F4F4" d="M72,39.166c-0.955-0.379-1.62-1.047-2-2h0.001
			c0.333-0.342,0.666-0.357,0.998,0C71.807,37.596,71.981,38.342,72,39.166L72,39.166z"/>
		<path fill-rule="evenodd" clip-rule="evenodd" fill="#F6F4F4" d="M99.999,37.166c0.808,0.43,0.982,1.176,1.001,2l0,0
			c-0.955-0.379-1.62-1.047-2-2h0.001C99.334,36.824,99.667,36.809,99.999,37.166z"/>
		<path fill-rule="evenodd" clip-rule="evenodd" fill="#F6F4F4" d="M244,39.166c-0.955-0.379-1.62-1.047-2-2h0.001
			c0.333-0.349,0.665-0.348,0.997,0C243.807,37.596,243.981,38.342,244,39.166L244,39.166z"/>
		<path fill-rule="evenodd" clip-rule="evenodd" fill="#F6F5F5" d="M219,35.166c0,1,0,2,0,3l0,0
			C217.713,37.166,217.713,36.166,219,35.166L219,35.166z"/>
		<path fill-rule="evenodd" clip-rule="evenodd" fill="#F8F7F7" d="M236,35.166c0.6,0.358,1.472,0.52,1.166,1.58
			C235.975,36.774,236.134,35.863,236,35.166L236,35.166z"/>
		<path fill-rule="evenodd" clip-rule="evenodd" fill="#F7F6F6" d="M219,38.166c0.824,0.02,1.57,0.191,2,1l0,0
			C220.176,39.146,219.429,38.975,219,38.166L219,38.166z"/>
		<path fill-rule="evenodd" clip-rule="evenodd" fill="#F7F6F6" d="M198,36.166c0.092-0.438,0.185-0.877,0.297-1.412
			C199.194,35.569,198.44,35.822,198,36.166L198,36.166z"/>
		<path fill-rule="evenodd" clip-rule="evenodd" fill="#F6F4F4" d="M242.999,37.166c-0.332,0-0.664,0-0.997,0
			c0-0.334,0-0.668-0.001-1.002C242.333,36.498,242.667,36.832,242.999,37.166z"/>
		<path fill-rule="evenodd" clip-rule="evenodd" fill="#F6F4F4" d="M232,35.166c-0.334,0.333-0.666,0.666-1,1l0,0
			C231.334,35.833,231.667,35.5,232,35.166L232,35.166z"/>
		<path fill-rule="evenodd" clip-rule="evenodd" fill="#F6F4F4" d="M70.999,37.166c-0.333,0-0.665,0-0.998,0
			c0-0.334,0-0.668,0-1.002C70.333,36.498,70.666,36.832,70.999,37.166z"/>
		<path fill-rule="evenodd" clip-rule="evenodd" fill="#F6F4F4" d="M99.999,37.166c-0.333,0-0.665,0-0.998,0
			c0-0.334,0-0.668,0-1.002C99.333,36.498,99.666,36.832,99.999,37.166z"/>
		<path fill-rule="evenodd" clip-rule="evenodd" fill="#FEFFFF" d="M44.272,11.067c2.225,1.298,1.753,2.375,0.249,3.768
			C42.915,13.524,42.72,12.464,44.272,11.067z"/>
		<path fill-rule="evenodd" clip-rule="evenodd" fill="#FEFFFF" d="M102.01,11.38c1.282,1.157,1.088,2.166,0.448,3.19
			c-0.983,0.37-1.651-0.032-1.982-0.862C100,12.516,100.764,11.919,102.01,11.38z"/>
		<path fill-rule="evenodd" clip-rule="evenodd" fill="#FDFDFD" d="M55.322,20.865c-2.042-3.292-1.644-6.319-0.398-9.705
			C57.604,13.975,57.705,16.923,55.322,20.865z"/>
		<path fill-rule="evenodd" clip-rule="evenodd" fill="#FDFDFD" d="M153.393,11.006c2.167,3.772,2.153,6.053,0.197,9.467
			C151.496,17.49,151.398,15.411,153.393,11.006z"/>
		<path fill-rule="evenodd" clip-rule="evenodd" fill="#FFFFFF" d="M174.812,37.009c-0.979,2.274-2.405,2.419-4.119,1.681
			c-0.78-0.937-0.743-1.855-0.157-2.912C172.175,34.785,173.568,35.041,174.812,37.009z"/>
		<path fill-rule="evenodd" clip-rule="evenodd" fill="#FEFEFE" d="M264,38.166c-0.334,0.333-0.666,0.666-1,0.999
			c-3.291-0.421-3.291-0.421-3.535-3.521C261.911,34.821,263.594,35.225,264,38.166z"/>
		<path fill-rule="evenodd" clip-rule="evenodd" fill="#FEFEFE" d="M56,38.166c-0.333,0.333-0.667,0.666-1,0.999
			c-2.185-0.001-4.552,0.194-3.598-3.499C53.911,34.822,55.595,35.223,56,38.166z"/>
		<path fill-rule="evenodd" clip-rule="evenodd" fill="#FEFEFE" d="M192,38.166c-0.334,0.333-0.667,0.666-1,0.999
			c-2.185-0.001-4.553,0.194-3.598-3.499C189.911,34.822,191.594,35.223,192,38.166z"/>
		<path fill-rule="evenodd" clip-rule="evenodd" fill="#FEFEFE" d="M124,35.166c1.412,2.667,1.412,5.333,0,8
			c-1.112-0.105-2.223-0.211-3.33-0.316c-1.067-2.348-0.718-4.566-0.394-6.688C121.36,34.839,122.751,35.289,124,35.166z"/>
		<path fill-rule="evenodd" clip-rule="evenodd" fill="#FEFEFE" d="M112,35.166c1.412,2.667,1.412,5.333,0,8
			c-1.112-0.105-2.223-0.211-3.33-0.316c-1.067-2.348-0.718-4.566-0.394-6.688C109.36,34.839,110.751,35.289,112,35.166z"/>
		<path fill-rule="evenodd" clip-rule="evenodd" fill="#FEFEFE" d="M206,35.166c1.412,2.667,1.412,5.333,0,8
			c-1.111-0.105-2.223-0.211-3.33-0.316c-1.066-2.348-0.718-4.566-0.395-6.688C203.36,34.839,204.751,35.289,206,35.166z"/>
		<path fill-rule="evenodd" clip-rule="evenodd" fill="#FFFFFF" d="M161,36.166c1.954-1.102,3.783-1.578,5.001,1
			C166,39.165,166,41.165,166,43.165c-1.426-0.087-2.953,0.294-4.323-1.059C160.446,40.396,161.208,38.213,161,36.166z"/>
		<path fill-rule="evenodd" clip-rule="evenodd" fill="#FFFFFF" d="M60.001,36.166c1.953-1.102,3.782-1.578,5,1
			c0,1.999-0.001,3.999-0.001,5.999c-1.426-0.087-2.952,0.294-4.323-1.059C59.446,40.396,60.207,38.213,60.001,36.166z"/>
	</g>
</g>
</svg>
