<?xml version="1.0" encoding="utf-8"?>
<!-- Generator: Adobe Illustrator 16.0.0, SVG Export Plug-In . SVG Version: 6.00 Build 0)  -->
<!DOCTYPE svg PUBLIC "-//W3C//DTD SVG 1.1//EN" "http://www.w3.org/Graphics/SVG/1.1/DTD/svg11.dtd">
<svg version="1.1" id="Layer_1" xmlns="http://www.w3.org/2000/svg" xmlns:xlink="http://www.w3.org/1999/xlink" x="0px" y="0px"
	 width="353.089px" height="56.098px" viewBox="0 0 353.089 56.098" enable-background="new 0 0 353.089 56.098"
	 xml:space="preserve">
<g>
	<path fill="#F1F2F2" d="M39.162,22.25v-10.5h4.676c0.635,0,1.181,0.231,1.638,0.693c0.457,0.462,0.686,1.011,0.686,1.645v0.63
		c0,0.523-0.178,1.024-0.532,1.505c-0.354,0.48-0.952,0.721-1.792,0.721H45c0.317,0,0.59,0.115,0.819,0.343s0.343,0.506,0.343,0.833
		v4.13h-2.324v-3.5c0-0.317-0.114-0.59-0.343-0.819c-0.229-0.229-0.506-0.343-0.833-0.343H41.5v4.662H39.162z M41.5,16.412h1.162
		c0.327,0,0.604-0.114,0.833-0.343c0.229-0.229,0.343-0.501,0.343-0.819v-1.162c0-0.327-0.114-0.604-0.343-0.833
		c-0.229-0.229-0.506-0.343-0.833-0.343H41.5V16.412z"/>
	<path fill="#F1F2F2" d="M50.838,11.75h2.338c0.635,0,1.181,0.231,1.638,0.693c0.457,0.462,0.686,1.011,0.686,1.645v5.824
		c0,0.635-0.229,1.183-0.686,1.645c-0.458,0.462-1.003,0.693-1.638,0.693h-2.338c-0.635,0-1.183-0.229-1.645-0.686
		c-0.462-0.457-0.693-1.008-0.693-1.652v-5.824c0-0.644,0.231-1.194,0.693-1.652C49.655,11.979,50.203,11.75,50.838,11.75z
		 M50.838,14.088v5.824c0,0.317,0.114,0.593,0.343,0.826c0.229,0.233,0.502,0.35,0.819,0.35c0.327,0,0.604-0.117,0.833-0.35
		c0.229-0.233,0.343-0.508,0.343-0.826v-5.824c0-0.327-0.114-0.604-0.343-0.833c-0.229-0.229-0.506-0.343-0.833-0.343
		c-0.317,0-0.59,0.114-0.819,0.343C50.952,13.484,50.838,13.761,50.838,14.088z"/>
	<path fill="#F1F2F2" d="M63.676,14.088h-1.162c-0.103-0.784-0.471-1.176-1.106-1.176c-0.411,0-0.719,0.098-0.924,0.294
		c-0.206,0.196-0.308,0.49-0.308,0.882c0,0.29,0.112,0.565,0.336,0.826l2.478,2.772c0.457,0.513,0.686,1.064,0.686,1.652v0.574
		c0,0.635-0.229,1.183-0.686,1.645c-0.458,0.462-1.008,0.693-1.652,0.693h-1.162c-0.775,0-1.358-0.193-1.75-0.581
		c-0.392-0.387-0.588-0.973-0.588-1.757h1.176c0,0.084,0,0.149,0,0.196c0,0.317,0.121,0.56,0.364,0.728
		c0.243,0.168,0.508,0.252,0.798,0.252c0.411,0,0.707-0.1,0.889-0.301c0.182-0.201,0.273-0.492,0.273-0.875
		c0-0.299-0.112-0.574-0.336-0.826l-2.478-2.772c-0.458-0.504-0.686-1.055-0.686-1.652v-0.574c0-0.634,0.229-1.183,0.686-1.645
		c0.457-0.462,1.008-0.693,1.652-0.693h1.162C62.803,11.75,63.583,12.529,63.676,14.088z"/>
	<path fill="#F1F2F2" d="M71.838,14.088h-1.162c-0.103-0.784-0.471-1.176-1.106-1.176c-0.411,0-0.719,0.098-0.924,0.294
		c-0.206,0.196-0.308,0.49-0.308,0.882c0,0.29,0.112,0.565,0.336,0.826l2.478,2.772c0.457,0.513,0.686,1.064,0.686,1.652v0.574
		c0,0.635-0.229,1.183-0.686,1.645c-0.458,0.462-1.008,0.693-1.652,0.693h-1.162c-0.775,0-1.358-0.193-1.75-0.581
		C66.196,21.282,66,20.696,66,19.912h1.176c0,0.084,0,0.149,0,0.196c0,0.317,0.121,0.56,0.364,0.728
		c0.243,0.168,0.508,0.252,0.798,0.252c0.411,0,0.707-0.1,0.889-0.301c0.182-0.201,0.273-0.492,0.273-0.875
		c0-0.299-0.112-0.574-0.336-0.826l-2.478-2.772C66.229,15.81,66,15.259,66,14.662v-0.574c0-0.634,0.229-1.183,0.686-1.645
		c0.457-0.462,1.008-0.693,1.652-0.693H69.5C70.965,11.75,71.745,12.529,71.838,14.088z"/>
	<path fill="#F1F2F2" d="M81.162,16.412h3.5v3.5c0,0.784-0.248,1.37-0.742,1.757c-0.495,0.388-1.022,0.581-1.582,0.581H80
		c-0.635,0-1.183-0.229-1.645-0.686c-0.462-0.457-0.693-1.008-0.693-1.652v-5.824c0-0.634,0.226-1.183,0.679-1.645
		S79.346,11.75,80,11.75h2.338c1.465,0,2.24,0.779,2.324,2.338H83.5c-0.093-0.784-0.481-1.176-1.162-1.176h-1.176
		c-0.317,0-0.59,0.114-0.819,0.343C80.114,13.484,80,13.761,80,14.088v5.824c0,0.327,0.114,0.604,0.343,0.833
		c0.229,0.229,0.502,0.343,0.819,0.343c0.747-0.037,1.139-0.429,1.176-1.176v-2.324h-1.176V16.412z"/>
	<path fill="#F1F2F2" d="M87,22.25v-8.162c0-0.644,0.231-1.194,0.693-1.652c0.462-0.457,1.01-0.686,1.645-0.686h2.338
		c0.635,0,1.181,0.231,1.638,0.693C93.771,12.905,94,13.454,94,14.088v8.162h-2.324v-4.662h-2.338v4.662H87z M89.337,16.412h2.338
		v-2.324c0-0.327-0.114-0.604-0.343-0.833c-0.229-0.229-0.506-0.343-0.833-0.343c-0.317,0-0.59,0.114-0.819,0.343
		c-0.229,0.229-0.343,0.506-0.343,0.833V16.412z"/>
	<path fill="#F1F2F2" d="M96.337,22.25v-10.5h2.338v9.338h3.5v1.162H96.337z"/>
	<path fill="#F1F2F2" d="M104.5,22.25v-10.5h2.338v9.338h3.5v1.162H104.5z"/>
	<path fill="#F1F2F2" d="M112.661,22.25v-10.5h5.838v1.162h-3.5v3.5h2.338v1.176h-2.338v3.5h3.5v1.162H112.661z"/>
	<path fill="#F1F2F2" d="M124.323,16.412h3.5v3.5c0,0.784-0.247,1.37-0.742,1.757c-0.495,0.388-1.021,0.581-1.582,0.581h-2.338
		c-0.635,0-1.183-0.229-1.645-0.686c-0.463-0.457-0.693-1.008-0.693-1.652v-5.824c0-0.634,0.227-1.183,0.679-1.645
		c0.453-0.462,1.006-0.693,1.659-0.693h2.338c1.465,0,2.24,0.779,2.324,2.338h-1.162c-0.094-0.784-0.48-1.176-1.162-1.176h-1.176
		c-0.317,0-0.591,0.114-0.819,0.343c-0.229,0.229-0.343,0.506-0.343,0.833v5.824c0,0.327,0.114,0.604,0.343,0.833
		s0.502,0.343,0.819,0.343c0.746-0.037,1.139-0.429,1.176-1.176v-2.324h-1.176V16.412z"/>
	<path fill="#F1F2F2" d="M132.499,11.75h2.338c0.635,0,1.181,0.231,1.638,0.693c0.458,0.462,0.687,1.011,0.687,1.645v5.824
		c0,0.635-0.229,1.183-0.687,1.645c-0.457,0.462-1.003,0.693-1.638,0.693h-2.338c-0.635,0-1.183-0.229-1.645-0.686
		c-0.463-0.457-0.693-1.008-0.693-1.652v-5.824c0-0.644,0.23-1.194,0.693-1.652C131.316,11.979,131.864,11.75,132.499,11.75z
		 M132.499,14.088v5.824c0,0.317,0.114,0.593,0.343,0.826c0.229,0.233,0.502,0.35,0.819,0.35c0.326,0,0.604-0.117,0.833-0.35
		c0.229-0.233,0.343-0.508,0.343-0.826v-5.824c0-0.327-0.114-0.604-0.343-0.833c-0.229-0.229-0.507-0.343-0.833-0.343
		c-0.317,0-0.591,0.114-0.819,0.343C132.613,13.484,132.499,13.761,132.499,14.088z"/>
</g>
<g>
	<path fill="#F1F2F2" d="M44.74,40.595h-4.642v4.655h-0.841v-9.953h6.166v0.711h-5.325v3.876h4.642V40.595z"/>
	<path fill="#F1F2F2" d="M50.852,41.101H47.96v4.149h-0.848v-9.953h3.233c1.062,0,1.891,0.257,2.488,0.771s0.896,1.233,0.896,2.158
		c0,0.637-0.187,1.199-0.561,1.686c-0.374,0.487-0.875,0.824-1.504,1.011l2.488,4.238v0.089h-0.896L50.852,41.101z M47.96,40.39
		h2.577c0.707,0,1.274-0.201,1.702-0.603s0.643-0.922,0.643-1.561c0-0.703-0.223-1.249-0.67-1.637s-1.073-0.582-1.88-0.582H47.96
		V40.39z"/>
	<path fill="#F1F2F2" d="M63.375,40.813c0,0.916-0.158,1.721-0.475,2.413s-0.769,1.226-1.357,1.6s-1.267,0.561-2.037,0.561
		c-1.162,0-2.101-0.416-2.816-1.248c-0.715-0.831-1.073-1.953-1.073-3.366v-1.025c0-0.907,0.161-1.71,0.482-2.409
		c0.321-0.7,0.776-1.238,1.364-1.613c0.588-0.377,1.265-0.564,2.03-0.564s1.441,0.185,2.027,0.554s1.038,0.891,1.357,1.565
		s0.485,1.456,0.499,2.345V40.813z M62.534,39.733c0-1.198-0.271-2.138-0.813-2.816s-1.285-1.019-2.229-1.019
		c-0.925,0-1.662,0.341-2.211,1.021c-0.549,0.682-0.824,1.633-0.824,2.854v1.039c0,1.181,0.273,2.116,0.82,2.806
		c0.547,0.691,1.29,1.036,2.229,1.036c0.953,0,1.695-0.341,2.229-1.022c0.533-0.681,0.8-1.63,0.8-2.847V39.733z"/>
	<path fill="#F1F2F2" d="M72.904,45.25h-0.841l-5.722-8.518v8.518h-0.848v-9.953h0.848l5.729,8.524v-8.524h0.834V45.25z"/>
	<path fill="#F1F2F2" d="M81.989,36.008h-3.411v9.242h-0.841v-9.242h-3.404v-0.711h7.656V36.008z"/>
	<path fill="#F1F2F2" d="M92.223,40.479h-4.655v4.061h5.353v0.711h-6.193v-9.953h6.159v0.711h-5.318v3.76h4.655V40.479z"/>
	<path fill="#F1F2F2" d="M102.101,45.25h-0.841l-5.722-8.518v8.518H94.69v-9.953h0.848l5.729,8.524v-8.524h0.834V45.25z"/>
	<path fill="#F1F2F2" d="M104.63,45.25v-9.953h2.782c0.816,0,1.547,0.186,2.194,0.557c0.647,0.372,1.152,0.904,1.514,1.597
		s0.543,1.481,0.543,2.365v0.916c0,0.889-0.18,1.677-0.54,2.365s-0.867,1.219-1.521,1.593s-1.405,0.561-2.252,0.561H104.63z
		 M105.471,36.008v8.531h1.887c1.048,0,1.889-0.348,2.522-1.043c0.633-0.696,0.95-1.637,0.95-2.822v-0.876
		c0-1.145-0.312-2.062-0.937-2.75s-1.447-1.035-2.468-1.04H105.471z"/>
	<path fill="#F1F2F2" d="M117.201,45.25v-9.953h2.782c0.816,0,1.547,0.186,2.194,0.557c0.647,0.372,1.152,0.904,1.514,1.597
		s0.543,1.481,0.543,2.365v0.916c0,0.889-0.18,1.677-0.54,2.365s-0.867,1.219-1.521,1.593s-1.405,0.561-2.252,0.561H117.201z
		 M118.042,36.008v8.531h1.887c1.048,0,1.889-0.348,2.522-1.043c0.633-0.696,0.95-1.637,0.95-2.822v-0.876
		c0-1.145-0.312-2.062-0.937-2.75s-1.447-1.035-2.468-1.04H118.042z"/>
	<path fill="#F1F2F2" d="M131.864,40.479h-4.655v4.061h5.353v0.711h-6.193v-9.953h6.159v0.711h-5.318v3.76h4.655V40.479z"/>
	<path fill="#F1F2F2" d="M137.333,44.02l0.055,0.212l0.062-0.212l3.131-8.723h0.923l-3.705,9.953h-0.807l-3.705-9.953h0.916
		L137.333,44.02z"/>
	<path fill="#F1F2F2" d="M148.462,40.479h-4.655v4.061h5.353v0.711h-6.193v-9.953h6.159v0.711h-5.318v3.76h4.655V40.479z"/>
	<path fill="#F1F2F2" d="M151.777,44.539h4.915v0.711h-5.763v-9.953h0.848V44.539z"/>
	<path fill="#F1F2F2" d="M165.217,40.813c0,0.916-0.158,1.721-0.475,2.413c-0.317,0.692-0.77,1.226-1.357,1.6
		s-1.267,0.561-2.037,0.561c-1.162,0-2.101-0.416-2.816-1.248c-0.716-0.831-1.073-1.953-1.073-3.366v-1.025
		c0-0.907,0.161-1.71,0.481-2.409c0.322-0.7,0.776-1.238,1.364-1.613c0.588-0.377,1.265-0.564,2.03-0.564s1.441,0.185,2.027,0.554
		c0.585,0.369,1.037,0.891,1.356,1.565s0.485,1.456,0.499,2.345V40.813z M164.376,39.733c0-1.198-0.271-2.138-0.813-2.816
		s-1.285-1.019-2.229-1.019c-0.925,0-1.662,0.341-2.211,1.021c-0.55,0.682-0.824,1.633-0.824,2.854v1.039
		c0,1.181,0.273,2.116,0.82,2.806c0.547,0.691,1.29,1.036,2.229,1.036c0.952,0,1.695-0.341,2.229-1.022
		c0.533-0.681,0.8-1.63,0.8-2.847V39.733z"/>
	<path fill="#F1F2F2" d="M168.177,41.196v4.054h-0.841v-9.953h3.391c1.034,0,1.852,0.265,2.451,0.793
		c0.599,0.528,0.898,1.256,0.898,2.181c0,0.935-0.288,1.655-0.865,2.163c-0.576,0.509-1.411,0.763-2.505,0.763H168.177z
		 M168.177,40.485h2.55c0.815,0,1.438-0.194,1.866-0.582s0.643-0.929,0.643-1.622c0-0.689-0.213-1.238-0.64-1.647
		c-0.426-0.408-1.03-0.617-1.814-0.626h-2.604V40.485z"/>
	<path fill="#F1F2F2" d="M181.452,40.479h-4.655v4.061h5.353v0.711h-6.193v-9.953h6.159v0.711h-5.318v3.76h4.655V40.479z"/>
	<path fill="#F1F2F2" d="M187.639,41.101h-2.892v4.149h-0.848v-9.953h3.233c1.062,0,1.892,0.257,2.488,0.771
		s0.896,1.233,0.896,2.158c0,0.637-0.187,1.199-0.561,1.686c-0.374,0.487-0.875,0.824-1.504,1.011l2.488,4.238v0.089h-0.896
		L187.639,41.101z M184.747,40.39h2.577c0.706,0,1.273-0.201,1.702-0.603s0.643-0.922,0.643-1.561c0-0.703-0.224-1.249-0.67-1.637
		s-1.073-0.582-1.88-0.582h-2.372V40.39z"/>
	<path fill="#F1F2F2" d="M195.903,46.104h-0.745l4.156-10.808h0.738L195.903,46.104z"/>
	<path fill="#F1F2F2" d="M205.173,45.25v-9.953h2.782c0.815,0,1.547,0.186,2.194,0.557c0.647,0.372,1.152,0.904,1.514,1.597
		c0.363,0.692,0.544,1.481,0.544,2.365v0.916c0,0.889-0.18,1.677-0.54,2.365s-0.867,1.219-1.521,1.593
		c-0.653,0.374-1.404,0.561-2.252,0.561H205.173z M206.014,36.008v8.531h1.887c1.048,0,1.889-0.348,2.522-1.043
		c0.634-0.696,0.95-1.637,0.95-2.822v-0.876c0-1.145-0.312-2.062-0.937-2.75s-1.447-1.035-2.468-1.04H206.014z"/>
	<path fill="#F1F2F2" d="M219.836,40.479h-4.655v4.061h5.353v0.711h-6.193v-9.953h6.159v0.711h-5.318v3.76h4.655V40.479z"/>
	<path fill="#F1F2F2" d="M227.937,42.803c0-0.552-0.193-0.988-0.581-1.309c-0.388-0.322-1.096-0.627-2.126-0.916
		c-1.03-0.29-1.782-0.605-2.256-0.947c-0.675-0.483-1.012-1.116-1.012-1.9c0-0.761,0.313-1.38,0.939-1.855
		c0.627-0.477,1.428-0.715,2.403-0.715c0.661,0,1.252,0.128,1.774,0.383c0.521,0.255,0.926,0.61,1.213,1.066
		s0.431,0.964,0.431,1.524h-0.848c0-0.681-0.232-1.229-0.697-1.643c-0.465-0.413-1.089-0.62-1.873-0.62
		c-0.761,0-1.367,0.17-1.818,0.51c-0.451,0.341-0.677,0.784-0.677,1.332c0,0.507,0.203,0.92,0.608,1.239s1.055,0.602,1.948,0.846
		s1.57,0.497,2.03,0.759c0.46,0.263,0.807,0.576,1.039,0.94s0.349,0.795,0.349,1.292c0,0.784-0.313,1.413-0.939,1.887
		c-0.627,0.474-1.453,0.711-2.479,0.711c-0.702,0-1.346-0.125-1.932-0.376c-0.585-0.251-1.029-0.602-1.332-1.053
		c-0.304-0.451-0.455-0.969-0.455-1.552h0.841c0,0.702,0.262,1.256,0.786,1.661s1.222,0.608,2.092,0.608
		c0.774,0,1.396-0.171,1.866-0.513S227.937,43.368,227.937,42.803z"/>
	<path fill="#F1F2F2" d="M231.621,45.25h-0.841v-9.953h0.841V45.25z"/>
	<path fill="#F1F2F2" d="M241.506,44.067c-0.292,0.415-0.749,0.738-1.37,0.971c-0.623,0.232-1.318,0.349-2.089,0.349
		c-0.779,0-1.472-0.187-2.078-0.561s-1.075-0.902-1.408-1.586s-0.501-1.468-0.506-2.352v-1.258c0-1.381,0.349-2.471,1.046-3.271
		c0.697-0.799,1.634-1.199,2.81-1.199c1.025,0,1.851,0.261,2.475,0.783c0.624,0.521,0.996,1.24,1.114,2.156h-0.841
		c-0.123-0.731-0.421-1.286-0.892-1.663c-0.473-0.377-1.089-0.565-1.85-0.565c-0.93,0-1.666,0.331-2.208,0.992
		s-0.813,1.594-0.813,2.798v1.177c0,0.757,0.129,1.427,0.387,2.008c0.257,0.582,0.626,1.032,1.107,1.352
		c0.48,0.319,1.033,0.479,1.657,0.479c0.725,0,1.347-0.114,1.866-0.342c0.337-0.15,0.588-0.326,0.752-0.526v-2.57h-2.673v-0.711
		h3.514V44.067z"/>
	<path fill="#F1F2F2" d="M251.302,45.25h-0.841l-5.722-8.518v8.518h-0.848v-9.953h0.848l5.729,8.524v-8.524h0.834V45.25z"/>
	<path fill="#F1F2F2" d="M259.327,40.479h-4.655v4.061h5.353v0.711h-6.193v-9.953h6.159v0.711h-5.318v3.76h4.655V40.479z"/>
	<path fill="#F1F2F2" d="M265.514,41.101h-2.892v4.149h-0.848v-9.953h3.233c1.062,0,1.892,0.257,2.488,0.771
		s0.896,1.233,0.896,2.158c0,0.637-0.187,1.199-0.561,1.686c-0.374,0.487-0.875,0.824-1.504,1.011l2.488,4.238v0.089h-0.896
		L265.514,41.101z M262.622,40.39h2.577c0.706,0,1.273-0.201,1.702-0.603s0.643-0.922,0.643-1.561c0-0.703-0.224-1.249-0.67-1.637
		s-1.073-0.582-1.88-0.582h-2.372V40.39z"/>
</g>
<g>
	<g>
		<path fill="none" d="M2,41C2,29.334,2.085,17.666,1.932,6.001C1.899,3.496,2.5,2.927,5,2.935C36,3.034,67,3,98,3
			c84,0,168,0.027,252-0.096c3.424-0.005,4.148,0.665,4.103,4.097C353.877,23.999,354,41,354,58
			c-115.834,0-231.667-0.021-347.5,0.094c-3.75,0.004-5.074-0.82-4.562-4.602C2.27,51.037,2,48.5,2,46
			c3.197-0.268,5.349,4.475,9.031,1.886c13.57,2.435,19.544-9.859,14.053-20.648c-1.408-2.767-2.574-5.673-4.158-8.333
			c-5.129-8.616-5.712-8.591-11.275-0.214c-0.273,0.412-0.711,0.726-0.939,1.156C5.247,26.378,1.018,32.736,3.74,40.74
			C3.16,40.827,2.58,40.914,2,41z"/>
		<path fill-rule="evenodd" clip-rule="evenodd" fill="none" d="M11.031,47.886C7.349,50.475,5.197,45.732,2,46c0-1.666,0-3.334,0-5
			c0.58-0.086,1.16-0.173,1.737-0.259C4.863,44.455,8.429,45.678,11.031,47.886z"/>
		<path fill-rule="evenodd" clip-rule="evenodd" fill="#35C6F4" d="M11.031,47.886c-2.602-2.208-6.168-3.431-7.294-7.145
			c-2.719-8.005,1.509-14.363,4.974-20.895c0.228-0.43,0.666-0.744,0.939-1.156c5.563-8.377,6.146-8.402,11.275,0.214
			c1.583,2.66,2.75,5.566,4.158,8.333C30.575,38.026,24.601,50.32,11.031,47.886z"/>
	</g>
</g>
</svg>
